# xmcd
#
# Track frame offsets:
#        150
#        21977
#        47004
#        60844
#        83231
#        105068
#        128439
#        146690
#        159599
#        185639
#        202247
#        227151
#        249707
#        265155
#        284038
#
# Disc length: 4014 seconds
#
# Revision: 0
# Processed by: cddbd v1.5.1PL0 Copyright (c) Steve Scherf et al.
# Submitted via: ExactAudioCopy v0.95a5
#
DISCID=d30fac0f
DTITLE=Earth, Wind and Fire - The Great Earth, Wind and Fire Disc2
DYEAR=2003
DGENRE=Pop
TTITLE0=Boogie Wonderland
TTITLE1=Side By Side
TTITLE2=Mighty Mighty
TTITLE3=Evil
TTITLE4=Devotion
TTITLE5=Keep Your Head To The Sky
TTITLE6=Kalimba Story
TTITLE7=Shining Star
TTITLE8=That's The Way Of The World
TTITLE9=Yearnin' Learnin
TTITLE10=All About Love
TTITLE11=Reasons
TTITLE12=Sing A Song
TTITLE13=Can't Hide Love
TTITLE14=Getaway
EXTD=
EXTT0=
EXTT1=
EXTT2=
EXTT3=
EXTT4=
EXTT5=
EXTT6=
EXTT7=
EXTT8=
EXTT9=
EXTT10=
EXTT11=
EXTT12=
EXTT13=
EXTT14=
PLAYORDER=
